<svg width="96" height="54" viewBox="0 0 96 54" fill="none" xmlns="http://www.w3.org/2000/svg">
<path d="M40.5 21C39.3706 21.3712 37.1966 23.2909 37.5354 28" stroke="#9b9fdc" stroke-width="2" stroke-linecap="round" stroke-linejoin="round"/>
<path d="M56.5 22C57.2529 22.3182 58.7022 23.9636 58.4764 28" stroke="#9b9fdc" stroke-width="2" stroke-linecap="round" stroke-linejoin="round"/>
<path d="M64.499 13.2961C64.499 13.4639 64.4992 13.6307 64.4995 13.7966C64.5016 15.4771 64.5035 17.0603 64.2864 18.547C64.051 20.1593 63.5664 21.5771 62.5963 22.7712C60.6596 25.1554 56.4815 27 47.1198 27C40.1683 27 36.06 25.5308 33.6863 23.3667C31.3366 21.2245 30.5 18.228 30.5 14.7039C30.5 11.4239 32.4457 8.00749 35.6729 5.37289C38.8855 2.75015 43.2601 1 47.8793 1C52.5479 1 56.7366 2.42921 59.736 4.69256C62.7348 6.95553 64.499 10.0072 64.499 13.2961Z" stroke="#9b9fdc" stroke-width="2"/>
<path d="M36.5 17C37.9667 17 40.9943 17 41.3714 17C41.8429 17 45.7714 16 47.0286 16C48.0343 16 51.7429 16.6667 53.4714 17H58.5" stroke="#9b9fdc" stroke-width="2" stroke-linecap="round"/>
<path d="M62.8103 13.5596C69.8448 12.6123 83.7586 12.363 89.5 17C83.7586 12.363 69.5345 14.4073 62.5 15.3546" stroke="#9b9fdc" stroke-width="1.5" stroke-linecap="round" stroke-linejoin="round"/>
<path d="M32.2011 12.5596C25.4272 11.6123 12.0287 11.363 6.5 16C12.0287 11.363 25.7261 13.4073 32.5 14.3546" stroke="#9b9fdc" stroke-width="1.5" stroke-linecap="round" stroke-linejoin="round"/>
<circle cx="59" cy="11.5" r="1.5" fill="#9b9fdc" stroke="#9b9fdc" stroke-width="2"/>
<circle cx="37" cy="11.5" r="1.5" fill="#9b9fdc" stroke="#9b9fdc" stroke-width="2"/>
<path d="M1.168 48C1.11467 48 1.06667 47.984 1.024 47.952C0.992 47.9093 0.976 47.8613 0.976 47.808V36.992C0.976 36.9387 0.992 36.896 1.024 36.864C1.06667 36.8213 1.11467 36.8 1.168 36.8H3.04C3.09333 36.8 3.136 36.8213 3.168 36.864C3.21067 36.896 3.232 36.9387 3.232 36.992V45.984C3.232 46.0373 3.25867 46.064 3.312 46.064H8.544C8.59733 46.064 8.64 46.0853 8.672 46.128C8.71467 46.16 8.736 46.2027 8.736 46.256V47.808C8.736 47.8613 8.71467 47.9093 8.672 47.952C8.64 47.984 8.59733 48 8.544 48H1.168ZM16.3883 39.968C16.3883 39.9147 16.4043 39.872 16.4363 39.84C16.4789 39.7973 16.5269 39.776 16.5803 39.776H18.4523C18.5056 39.776 18.5483 39.7973 18.5803 39.84C18.6229 39.872 18.6443 39.9147 18.6443 39.968V47.808C18.6443 47.8613 18.6229 47.9093 18.5803 47.952C18.5483 47.984 18.5056 48 18.4523 48H16.5803C16.5269 48 16.4789 47.984 16.4363 47.952C16.4043 47.9093 16.3883 47.8613 16.3883 47.808V47.264C16.3883 47.232 16.3776 47.216 16.3563 47.216C16.3349 47.2053 16.3136 47.216 16.2923 47.248C15.8656 47.824 15.2043 48.112 14.3083 48.112C13.4976 48.112 12.8309 47.8667 12.3083 47.376C11.7856 46.8853 11.5243 46.1973 11.5243 45.312V39.968C11.5243 39.9147 11.5403 39.872 11.5723 39.84C11.6149 39.7973 11.6629 39.776 11.7163 39.776H13.5723C13.6256 39.776 13.6683 39.7973 13.7003 39.84C13.7429 39.872 13.7643 39.9147 13.7643 39.968V44.752C13.7643 45.1787 13.8763 45.5253 14.1003 45.792C14.3349 46.0587 14.6549 46.192 15.0603 46.192C15.4229 46.192 15.7216 46.0853 15.9563 45.872C16.1909 45.648 16.3349 45.36 16.3883 45.008V39.968ZM22.099 48C22.0457 48 21.9977 47.984 21.955 47.952C21.923 47.9093 21.907 47.8613 21.907 47.808V36.992C21.907 36.9387 21.923 36.896 21.955 36.864C21.9977 36.8213 22.0457 36.8 22.099 36.8H23.971C24.0243 36.8 24.067 36.8213 24.099 36.864C24.1417 36.896 24.163 36.9387 24.163 36.992V42.384C24.163 42.416 24.1737 42.4373 24.195 42.448C24.2163 42.448 24.2377 42.4373 24.259 42.416L26.435 39.888C26.5097 39.8133 26.5897 39.776 26.675 39.776H28.803C28.9097 39.776 28.963 39.8133 28.963 39.888C28.963 39.92 28.947 39.9627 28.915 40.016L26.883 42.592C26.8617 42.6347 26.8563 42.672 26.867 42.704L29.251 47.776C29.2723 47.8187 29.283 47.8507 29.283 47.872C29.283 47.9573 29.2243 48 29.107 48H27.139C27.0323 48 26.9577 47.952 26.915 47.856L25.331 44.112C25.3203 44.0907 25.299 44.08 25.267 44.08C25.2457 44.0693 25.2297 44.0747 25.219 44.096L24.195 45.376C24.1737 45.4187 24.163 45.4507 24.163 45.472V47.808C24.163 47.8613 24.1417 47.9093 24.099 47.952C24.067 47.984 24.0243 48 23.971 48H22.099ZM38.5839 43.04C38.6479 43.4453 38.6692 43.8987 38.6479 44.4C38.6372 44.528 38.5679 44.592 38.4399 44.592H33.4959C33.4319 44.592 33.4105 44.6187 33.4319 44.672C33.4639 44.8853 33.5225 45.0987 33.6079 45.312C33.8852 45.9093 34.4505 46.208 35.3039 46.208C35.9865 46.1973 36.5252 45.92 36.9199 45.376C36.9625 45.312 37.0105 45.28 37.0639 45.28C37.0959 45.28 37.1332 45.3013 37.1759 45.344L38.3279 46.48C38.3812 46.5333 38.4079 46.5813 38.4079 46.624C38.4079 46.6453 38.3865 46.688 38.3439 46.752C37.9919 47.1893 37.5385 47.5307 36.9839 47.776C36.4292 48.0107 35.8212 48.128 35.1599 48.128C34.2425 48.128 33.4639 47.92 32.8239 47.504C32.1945 47.088 31.7412 46.5067 31.4639 45.76C31.2399 45.2267 31.1279 44.528 31.1279 43.664C31.1279 43.0773 31.2079 42.56 31.3679 42.112C31.6132 41.3547 32.0399 40.752 32.6479 40.304C33.2665 39.856 33.9972 39.632 34.8399 39.632C35.9065 39.632 36.7599 39.9413 37.3999 40.56C38.0505 41.1787 38.4452 42.0053 38.5839 43.04ZM34.8559 41.584C34.1839 41.584 33.7412 41.8987 33.5279 42.528C33.4852 42.6667 33.4479 42.8373 33.4159 43.04C33.4159 43.0933 33.4425 43.12 33.4959 43.12H36.2639C36.3279 43.12 36.3492 43.0933 36.3279 43.04C36.2745 42.7307 36.2479 42.5813 36.2479 42.592C36.1519 42.272 35.9812 42.0267 35.7359 41.856C35.5012 41.6747 35.2079 41.584 34.8559 41.584ZM53.7854 36.928C53.8387 36.8427 53.9134 36.8 54.0094 36.8H55.8814C55.9347 36.8 55.9774 36.8213 56.0094 36.864C56.052 36.896 56.0734 36.9387 56.0734 36.992V47.808C56.0734 47.8613 56.052 47.9093 56.0094 47.952C55.9774 47.984 55.9347 48 55.8814 48H54.0094C53.956 48 53.908 47.984 53.8654 47.952C53.8334 47.9093 53.8174 47.8613 53.8174 47.808V40.752C53.8174 40.7093 53.8067 40.688 53.7854 40.688C53.764 40.688 53.7427 40.704 53.7214 40.736L52.0254 43.392C51.972 43.4773 51.8974 43.52 51.8014 43.52H50.8574C50.7614 43.52 50.6867 43.4773 50.6334 43.392L48.9374 40.736C48.916 40.704 48.8947 40.6933 48.8734 40.704C48.852 40.704 48.8414 40.7253 48.8414 40.768V47.808C48.8414 47.8613 48.82 47.9093 48.7774 47.952C48.7454 47.984 48.7027 48 48.6494 48H46.7774C46.724 48 46.676 47.984 46.6334 47.952C46.6014 47.9093 46.5854 47.8613 46.5854 47.808V36.992C46.5854 36.9387 46.6014 36.896 46.6334 36.864C46.676 36.8213 46.724 36.8 46.7774 36.8H48.6494C48.7454 36.8 48.82 36.8427 48.8734 36.928L51.2734 40.656C51.3054 40.72 51.3374 40.72 51.3694 40.656L53.7854 36.928ZM63.1109 48.128C62.2149 48.128 61.4469 47.8933 60.8069 47.424C60.1669 46.9547 59.7295 46.3147 59.4949 45.504C59.3455 45.0027 59.2709 44.4587 59.2709 43.872C59.2709 43.2427 59.3455 42.6773 59.4949 42.176C59.7402 41.3867 60.1829 40.768 60.8229 40.32C61.4629 39.872 62.2309 39.648 63.1269 39.648C64.0015 39.648 64.7482 39.872 65.3669 40.32C65.9855 40.7573 66.4229 41.3707 66.6789 42.16C66.8495 42.6933 66.9349 43.2533 66.9349 43.84C66.9349 44.416 66.8602 44.9547 66.7109 45.456C66.4762 46.288 66.0389 46.944 65.3989 47.424C64.7695 47.8933 64.0069 48.128 63.1109 48.128ZM63.1109 46.192C63.4629 46.192 63.7615 46.0853 64.0069 45.872C64.2522 45.6587 64.4282 45.3653 64.5349 44.992C64.6202 44.6507 64.6629 44.2773 64.6629 43.872C64.6629 43.424 64.6202 43.0453 64.5349 42.736C64.4175 42.3733 64.2362 42.0907 63.9909 41.888C63.7455 41.6853 63.4469 41.584 63.0949 41.584C62.7322 41.584 62.4282 41.6853 62.1829 41.888C61.9482 42.0907 61.7775 42.3733 61.6709 42.736C61.5855 42.992 61.5429 43.3707 61.5429 43.872C61.5429 44.352 61.5802 44.7253 61.6549 44.992C61.7615 45.3653 61.9375 45.6587 62.1829 45.872C62.4389 46.0853 62.7482 46.192 63.1109 46.192ZM73.6171 48.128C72.7211 48.128 71.9531 47.8933 71.3131 47.424C70.6731 46.9547 70.2358 46.3147 70.0011 45.504C69.8518 45.0027 69.7771 44.4587 69.7771 43.872C69.7771 43.2427 69.8518 42.6773 70.0011 42.176C70.2465 41.3867 70.6891 40.768 71.3291 40.32C71.9691 39.872 72.7371 39.648 73.6331 39.648C74.5078 39.648 75.2545 39.872 75.8731 40.32C76.4918 40.7573 76.9291 41.3707 77.1851 42.16C77.3558 42.6933 77.4411 43.2533 77.4411 43.84C77.4411 44.416 77.3665 44.9547 77.2171 45.456C76.9825 46.288 76.5451 46.944 75.9051 47.424C75.2758 47.8933 74.5131 48.128 73.6171 48.128ZM73.6171 46.192C73.9691 46.192 74.2678 46.0853 74.5131 45.872C74.7585 45.6587 74.9345 45.3653 75.0411 44.992C75.1265 44.6507 75.1691 44.2773 75.1691 43.872C75.1691 43.424 75.1265 43.0453 75.0411 42.736C74.9238 42.3733 74.7425 42.0907 74.4971 41.888C74.2518 41.6853 73.9531 41.584 73.6011 41.584C73.2385 41.584 72.9345 41.6853 72.6891 41.888C72.4545 42.0907 72.2838 42.3733 72.1771 42.736C72.0918 42.992 72.0491 43.3707 72.0491 43.872C72.0491 44.352 72.0865 44.7253 72.1611 44.992C72.2678 45.3653 72.4438 45.6587 72.6891 45.872C72.9451 46.0853 73.2545 46.192 73.6171 46.192ZM84.5874 39.664C84.9714 39.664 85.2754 39.7387 85.4994 39.888C85.5847 39.9307 85.6167 40.0107 85.5954 40.128L85.2594 41.952C85.2487 42.08 85.174 42.1173 85.0354 42.064C84.8754 42.0107 84.6887 41.984 84.4754 41.984C84.39 41.984 84.2727 41.9947 84.1234 42.016C83.7394 42.048 83.414 42.192 83.1474 42.448C82.8807 42.6933 82.7474 43.024 82.7474 43.44V47.808C82.7474 47.8613 82.726 47.9093 82.6834 47.952C82.6514 47.984 82.6087 48 82.5554 48H80.6834C80.63 48 80.582 47.984 80.5394 47.952C80.5074 47.9093 80.4914 47.8613 80.4914 47.808V39.968C80.4914 39.9147 80.5074 39.872 80.5394 39.84C80.582 39.7973 80.63 39.776 80.6834 39.776H82.5554C82.6087 39.776 82.6514 39.7973 82.6834 39.84C82.726 39.872 82.7474 39.9147 82.7474 39.968V40.576C82.7474 40.608 82.758 40.6293 82.7794 40.64C82.8007 40.6507 82.8167 40.6453 82.8274 40.624C83.2647 39.984 83.8514 39.664 84.5874 39.664ZM95.2933 43.04C95.3573 43.4453 95.3786 43.8987 95.3573 44.4C95.3466 44.528 95.2773 44.592 95.1493 44.592H90.2053C90.1413 44.592 90.1199 44.6187 90.1413 44.672C90.1733 44.8853 90.2319 45.0987 90.3173 45.312C90.5946 45.9093 91.1599 46.208 92.0133 46.208C92.6959 46.1973 93.2346 45.92 93.6293 45.376C93.6719 45.312 93.7199 45.28 93.7733 45.28C93.8053 45.28 93.8426 45.3013 93.8853 45.344L95.0373 46.48C95.0906 46.5333 95.1173 46.5813 95.1173 46.624C95.1173 46.6453 95.0959 46.688 95.0533 46.752C94.7013 47.1893 94.2479 47.5307 93.6933 47.776C93.1386 48.0107 92.5306 48.128 91.8693 48.128C90.9519 48.128 90.1733 47.92 89.5333 47.504C88.9039 47.088 88.4506 46.5067 88.1733 45.76C87.9493 45.2267 87.8373 44.528 87.8373 43.664C87.8373 43.0773 87.9173 42.56 88.0773 42.112C88.3226 41.3547 88.7493 40.752 89.3573 40.304C89.9759 39.856 90.7066 39.632 91.5493 39.632C92.6159 39.632 93.4693 39.9413 94.1093 40.56C94.7599 41.1787 95.1546 42.0053 95.2933 43.04ZM91.5653 41.584C90.8933 41.584 90.4506 41.8987 90.2373 42.528C90.1946 42.6667 90.1573 42.8373 90.1253 43.04C90.1253 43.0933 90.1519 43.12 90.2053 43.12H92.9733C93.0373 43.12 93.0586 43.0933 93.0373 43.04C92.9839 42.7307 92.9573 42.5813 92.9573 42.592C92.8613 42.272 92.6906 42.0267 92.4453 41.856C92.2106 41.6747 91.9173 41.584 91.5653 41.584Z" fill="#E8E5E0"/>
</svg>